<svg
    xmlns="http://www.w3.org/2000/svg"
    viewBox="0 0 24 24"
    id="vector">
    <path
        id="path"
        d="M 20.5 3 L 20.34 3.03 L 15 5.1 L 9 3 L 3.36 4.9 C 3.15 4.97 3 5.15 3 5.38 L 3 20.5 C 3 20.78 3.22 21 3.5 21 L 3.66 20.97 L 9 18.9 L 15 21 L 20.64 19.1 C 20.85 19.03 21 18.85 21 18.62 L 21 3.5 C 21 3.22 20.78 3 20.5 3 Z M 10 5.47 L 14 6.87 L 14 18.53 L 10 17.13 L 10 5.47 Z M 5 6.46 L 8 5.45 L 8 17.15 L 5 18.31 L 5 6.46 Z M 19 17.54 L 16 18.55 L 16 6.86 L 19 5.7 L 19 17.54 Z"
        fill="#000000"/>
</svg>
